<?xml version="1.0" standalone="no"?>
<!DOCTYPE svg PUBLIC "-//W3C//DTD SVG 20010904//EN"
 "http://www.w3.org/TR/2001/REC-SVG-20010904/DTD/svg10.dtd">
<svg version="1.0" xmlns="http://www.w3.org/2000/svg"
 width="128.000000pt" height="128.000000pt" viewBox="0 0 128.000000 128.000000"
 preserveAspectRatio="xMidYMid meet">
<metadata>
Created by potrace 1.14, written by Peter Selinger 2001-2017
</metadata>
<g transform="translate(0.000000,128.000000) scale(0.100000,-0.100000)"
fill="#000000" stroke="none">
<path d="M347 1237 l-39 -24 26 -30 c14 -17 23 -33 20 -36 -8 -7 21 -61 49
-90 44 -49 105 -72 194 -74 l82 -3 -4 45 c-5 56 -54 146 -99 180 -74 56 -167
69 -229 32z"/>
<path d="M733 1144 c-15 -23 -18 -49 -18 -149 1 -129 9 -179 28 -172 8 2 12
36 14 108 0 57 6 124 13 149 6 25 12 54 13 65 3 31 -29 30 -50 -1z"/>
<path d="M935 1033 c-28 -8 -86 -49 -79 -56 3 -3 23 1 44 8 42 15 110 17 130
5 7 -4 -4 -15 -32 -27 -24 -12 -99 -58 -168 -103 -121 -80 -125 -82 -138 -62
-42 63 -73 82 -137 82 -167 0 -243 -164 -174 -378 12 -36 5 -67 -12 -56 -6 3
-41 6 -78 5 -56 -1 -71 2 -86 19 -21 23 -53 26 -80 6 -12 -9 -27 -11 -40 -6
-57 21 -91 -40 -82 -145 9 -106 25 -141 87 -198 93 -86 128 -100 249 -104 65
-1 109 2 118 8 7 6 13 9 13 5 0 -7 102 44 110 55 8 10 67 39 71 34 9 -8 67
-16 148 -20 74 -4 91 -2 135 19 71 33 144 107 203 205 34 56 42 110 20 138 -6
9 0 45 17 105 34 121 40 215 20 283 -23 83 -89 161 -143 173 -37 7 -97 10
-116 5z"/>
<path d="M1273 355 c0 -33 2 -45 4 -27 2 18 2 45 0 60 -2 15 -4 0 -4 -33z"/>
</g>
</svg>
